# xmcd
#
# Track frame offsets:
# 183
# 14693
# 30820
# 44645
# 60295
# 78143
# 98190
# 109743
# 122453
# 155028
# 166225
#
# Disc length: 2455 seconds
#
#
# Revision: 0
# Processed by: cddbd v1.5.1PL2 Copyright (c) Steve Scherf et al.
# Submitted via: FreeRIP 2.945 
#
DISCID=7b09950b
DTITLE=sammy davis jr - 
DYEAR=1900
DGENRE=Oldies
TTITLE0=the candy man
TTITLE1=this is my life
TTITLE2=i m over 25, but you can trust me
TTITLE3=have a little talk with myself
TTITLE4=willoughby grove
TTITLE5=take my hand
TTITLE6=i ll begin again
TTITLE7=i want to be happy
TTITLE8=macarthur park
TTITLE9=time to ride
TTITLE10=john shaft
EXTD=
EXTT0=
EXTT1=
EXTT2=
EXTT3=
EXTT4=
EXTT5=
EXTT6=
EXTT7=
EXTT8=
EXTT9=
EXTT10=
PLAYORDER=
